<?xml version="1.0" standalone="no"?>
<!DOCTYPE svg PUBLIC "-//W3C//DTD SVG 20010904//EN"
 "http://www.w3.org/TR/2001/REC-SVG-20010904/DTD/svg10.dtd">
<svg version="1.0" xmlns="http://www.w3.org/2000/svg"
 width="354.000000pt" height="354.000000pt" viewBox="0 0 354.000000 354.000000"
 preserveAspectRatio="xMidYMid meet">
<metadata>
Created by potrace 1.14, written by Peter Selinger 2001-2017
</metadata>
<g transform="translate(0.000000,354.000000) scale(0.100000,-0.100000)"
fill="#000000" stroke="none">
<path d="M1509 2476 c-2 -2 -49 -7 -104 -11 -55 -4 -106 -8 -115 -10 -8 -1
-40 -6 -70 -9 -130 -15 -320 -53 -459 -92 -682 -192 -941 -540 -632 -852 187
-189 620 -351 1086 -407 28 -4 61 -8 75 -11 147 -26 884 -25 962 1 7 2 41 6
75 9 155 14 471 89 639 151 302 113 499 262 555 421 84 237 -117 464 -554 628
-82 31 -237 77 -305 91 -9 2 -37 8 -62 14 -25 5 -61 13 -80 16 -19 3 -42 8
-50 10 -8 2 -39 7 -69 10 -30 4 -61 8 -70 10 -9 1 -45 6 -81 10 -36 4 -78 9
-95 12 -38 6 -640 15 -646 9z m506 -120 c239 -18 446 -53 625 -107 613 -182
788 -515 408 -776 -272 -186 -756 -298 -1283 -296 -129 0 -307 9 -355 17 -14
2 -54 7 -90 11 -36 4 -72 8 -80 10 -8 1 -31 5 -50 8 -19 4 -69 13 -110 22 -41
9 -85 18 -96 21 -67 13 -276 90 -363 132 -472 234 -434 569 91 786 83 34 265
92 323 102 16 3 48 9 70 14 41 9 53 11 170 29 95 15 143 20 260 27 55 4 101 7
102 8 5 4 303 -2 378 -8z"/>
<path d="M1646 2161 c-3 -5 -51 -123 -106 -262 -192 -483 -173 -442 -214 -462
-26 -13 -36 -23 -36 -41 0 -21 4 -24 28 -20 35 6 122 5 132 -1 14 -9 32 24 25
44 -3 11 -9 20 -13 20 -22 -3 -32 3 -32 20 0 21 48 159 61 176 4 6 34 11 66
10 l58 0 1 -45 c2 -25 3 -66 5 -91 3 -56 -3 -66 -41 -74 -25 -5 -30 -12 -30
-35 0 -25 3 -28 23 -24 36 7 143 7 166 -1 47 -15 71 46 26 67 -17 7 -25 20
-26 37 -1 14 -3 37 -4 51 -2 14 -6 88 -9 165 -4 77 -9 156 -11 175 -3 34 -18
262 -18 288 0 14 -43 17 -51 3z m-40 -355 l5 -86 -41 0 c-22 0 -40 4 -40 9 0
15 63 172 67 167 2 -2 6 -42 9 -90z"/>
<path d="M2294 2151 c-34 -20 -81 -87 -141 -200 -38 -70 -91 -146 -98 -139 -2
2 0 23 5 48 4 25 11 63 14 85 8 50 16 95 22 117 3 9 20 22 39 28 19 6 36 16
36 21 6 42 9 41 -116 43 l-120 1 -3 -25 c-2 -19 5 -29 26 -41 33 -19 33 -19 2
-189 -12 -63 -23 -124 -24 -135 -13 -85 -49 -282 -53 -288 -2 -4 -22 -19 -44
-33 -24 -15 -39 -32 -39 -44 0 -18 7 -20 85 -21 47 -1 100 -2 118 -3 17 -1 35
2 38 7 11 16 -2 45 -27 62 -14 9 -23 19 -20 23 2 4 7 34 11 67 3 32 8 62 10
65 2 3 6 28 10 55 11 95 23 116 45 76 14 -28 39 -150 56 -276 11 -87 3 -80
109 -80 82 0 96 2 101 17 8 25 -3 38 -32 38 -43 0 -74 49 -90 145 -28 171 -38
211 -61 236 -12 15 -8 28 39 111 85 151 99 163 113 98 4 -17 15 -35 26 -40 41
-22 89 70 74 141 -11 50 -58 63 -111 30z"/>
<path d="M2651 2158 c-191 -33 -348 -397 -277 -640 36 -124 123 -170 260 -138
68 15 88 38 117 133 l27 87 -22 0 c-16 0 -35 -18 -65 -61 -89 -126 -179 -132
-210 -14 -10 37 -8 196 3 213 2 4 7 26 11 49 15 104 72 233 123 280 52 48 127
12 155 -77 11 -32 21 -46 36 -48 23 -4 22 -9 27 109 3 70 1 77 -19 88 -34 18
-117 28 -166 19z"/>
<path d="M837 2132 c-12 -26 1 -42 36 -42 20 0 19 -4 -8 -160 -9 -52 -18 -106
-20 -119 -2 -14 -9 -47 -14 -75 -6 -28 -13 -69 -16 -90 -3 -22 -12 -71 -20
-110 -8 -39 -15 -74 -15 -78 0 -3 -15 -11 -34 -18 -21 -7 -36 -19 -40 -32 -3
-12 -4 -23 -3 -25 3 -3 35 -4 126 -3 35 0 67 -3 72 -6 15 -9 49 16 49 37 0 13
-10 24 -30 30 -16 6 -30 15 -30 20 0 13 40 240 46 259 3 13 22 15 111 13 58
-2 108 -5 110 -7 5 -4 -23 -170 -39 -233 -8 -35 -15 -43 -39 -48 -28 -6 -49
-30 -49 -55 0 -7 24 -9 72 -7 40 2 92 0 115 -3 27 -4 46 -3 51 4 16 21 7 51
-19 63 l-25 12 37 218 c75 437 66 401 105 415 19 6 34 17 34 24 0 7 2 19 5 26
5 12 -15 14 -114 14 -110 -1 -120 -3 -125 -21 -3 -10 -4 -20 -3 -20 1 -1 15
-9 30 -19 31 -19 31 -6 1 -181 -8 -49 -21 -93 -27 -97 -7 -4 -58 -8 -115 -8
l-102 0 5 28 c3 15 13 72 22 127 9 55 21 105 26 112 4 6 22 15 38 18 16 4 30
13 31 21 0 8 1 19 2 26 1 8 -34 12 -113 13 -110 1 -113 1 -124 -23z"/>
</g>
</svg>
